<svg width="22" height="22" viewBox="0 0 22 22" fill="none" xmlns="http://www.w3.org/2000/svg">
<path d="M11 22C17.0742 22 22 17.0742 22 11C22 4.92582 17.0742 0 11 0C4.92582 0 0 4.92151 0 11C0 17.0742 4.92582 22 11 22Z" fill="black"/>
<path d="M7.33046 15.9045L8.86303 13.2625L10.3956 10.629L11.9195 7.98695L12.1699 7.56819L12.2822 7.98695L12.7484 9.72675L12.2261 10.629L10.6935 13.2625L9.16955 15.9045H11L12.5326 13.2625L13.3269 11.8939L13.7025 13.2625L14.4105 15.9045H16.0553L15.3473 13.2625L14.635 10.629L14.4494 9.95124L15.5891 7.98695H13.927L13.8709 7.79268L13.2924 5.63413L13.219 5.35352H11.6217L11.5828 5.40964L10.0891 7.98695L8.55652 10.629L7.03257 13.2625L5.5 15.9045H7.33046Z" fill="white"/>
</svg>
