<svg width="36" height="36" viewBox="0 0 36 36" fill="none" xmlns="http://www.w3.org/2000/svg">
<mask id="mask0_16_6489" style="mask-type:alpha" maskUnits="userSpaceOnUse" x="0" y="0" width="36" height="36">
<rect width="36" height="36" fill="#D9D9D9"/>
</mask>
<g mask="url(#mask0_16_6489)">
<path d="M9.375 29.25C8.64625 29.25 8.0265 28.9948 7.51575 28.4843C7.00525 27.9735 6.75 27.3538 6.75 26.625V21.5194C6.75 20.7904 7.00525 20.1706 7.51575 19.6601C8.0265 19.1496 8.64625 18.8944 9.375 18.8944C10.1037 18.8944 10.7235 19.1496 11.2342 19.6601C11.7447 20.1706 12 20.7904 12 21.5194V26.625C12 27.3538 11.7447 27.9735 11.2342 28.4843C10.7235 28.9948 10.1037 29.25 9.375 29.25ZM18 29.25C17.2712 29.25 16.6515 28.9948 16.1408 28.4843C15.6303 27.9735 15.375 27.3538 15.375 26.625V9.375C15.375 8.64625 15.6303 8.0265 16.1408 7.51575C16.6515 7.00525 17.2712 6.75 18 6.75C18.7288 6.75 19.3485 7.00525 19.8593 7.51575C20.3698 8.0265 20.625 8.64625 20.625 9.375V26.625C20.625 27.3538 20.3698 27.9735 19.8593 28.4843C19.3485 28.9948 18.7288 29.25 18 29.25ZM26.625 29.25C25.8962 29.25 25.2765 28.9948 24.7658 28.4843C24.2552 27.9735 24 27.3538 24 26.625V16.7306C24 16.0019 24.2552 15.3823 24.7658 14.8718C25.2765 14.3613 25.8962 14.106 26.625 14.106C27.3538 14.106 27.9735 14.3613 28.4843 14.8718C28.9948 15.3823 29.25 16.0019 29.25 16.7306V26.625C29.25 27.3538 28.9948 27.9735 28.4843 28.4843C27.9735 28.9948 27.3538 29.25 26.625 29.25Z" fill="#9C27B0"/>
</g>
</svg>
