<svg width="26" height="27" viewBox="0 0 26 27" fill="none" xmlns="http://www.w3.org/2000/svg">
<path d="M3.03389 26.0918C2.27614 26.0918 1.63477 25.8293 1.10977 25.3043C0.584766 24.7793 0.322266 24.1379 0.322266 23.3802V3.30342C0.322266 2.54567 0.584766 1.9043 1.10977 1.3793C1.63477 0.854297 2.27614 0.591797 3.03389 0.591797H23.1106C23.8684 0.591797 24.5098 0.854297 25.0348 1.3793C25.5598 1.9043 25.8223 2.54567 25.8223 3.30342V23.3802C25.8223 24.1379 25.5598 24.7793 25.0348 25.3043C24.5098 25.8293 23.8684 26.0918 23.1106 26.0918H3.03389ZM3.03389 23.8418H23.1106C23.2261 23.8418 23.3319 23.7937 23.4279 23.6974C23.5241 23.6014 23.5723 23.4957 23.5723 23.3802V3.30342C23.5723 3.18792 23.5241 3.08217 23.4279 2.98617C23.3319 2.88992 23.2261 2.8418 23.1106 2.8418H3.03389C2.91839 2.8418 2.81264 2.88992 2.71664 2.98617C2.62039 3.08217 2.57227 3.18792 2.57227 3.30342V23.3802C2.57227 23.4957 2.62039 23.6014 2.71664 23.6974C2.81264 23.7937 2.91839 23.8418 3.03389 23.8418ZM7.24552 10.7168C6.92627 10.7168 6.65889 10.8245 6.44339 11.04C6.22814 11.2553 6.12052 11.5225 6.12052 11.8418V19.3418C6.12052 19.661 6.22814 19.9283 6.44339 20.1435C6.65889 20.359 6.92627 20.4668 7.24552 20.4668C7.56452 20.4668 7.83177 20.359 8.04727 20.1435C8.26252 19.9283 8.37014 19.661 8.37014 19.3418V11.8418C8.37014 11.5225 8.26252 11.2553 8.04727 11.04C7.83177 10.8245 7.56452 10.7168 7.24552 10.7168ZM13.0723 6.2168C12.753 6.2168 12.4858 6.32455 12.2705 6.54005C12.055 6.7553 11.9473 7.02255 11.9473 7.3418V19.3418C11.9473 19.661 12.055 19.9283 12.2705 20.1435C12.4858 20.359 12.753 20.4668 13.0723 20.4668C13.3915 20.4668 13.6588 20.359 13.874 20.1435C14.0895 19.9283 14.1973 19.661 14.1973 19.3418V7.3418C14.1973 7.02255 14.0895 6.7553 13.874 6.54005C13.6588 6.32455 13.3915 6.2168 13.0723 6.2168ZM18.899 15.2168C18.58 15.2168 18.3128 15.3245 18.0973 15.54C17.882 15.7553 17.7744 16.0225 17.7744 16.3418V19.3418C17.7744 19.661 17.882 19.9283 18.0973 20.1435C18.3128 20.359 18.58 20.4668 18.899 20.4668C19.2183 20.4668 19.4856 20.359 19.7011 20.1435C19.9164 19.9283 20.024 19.661 20.024 19.3418V16.3418C20.024 16.0225 19.9164 15.7553 19.7011 15.54C19.4856 15.3245 19.2183 15.2168 18.899 15.2168Z" fill="#5D5D5B"/>
</svg>
