<svg width="18" height="18" viewBox="0 0 18 18" fill="none" xmlns="http://www.w3.org/2000/svg">
<path d="M9.0288 17.4991C6.65964 17.4991 4.65072 16.6748 3.00205 15.0261C1.35339 13.3773 0.529053 11.3683 0.529053 8.99915C0.529053 7.02615 1.13955 5.27231 2.36055 3.73765C3.58172 2.20298 5.2083 1.2139 7.2403 0.770398C7.45064 0.717731 7.63589 0.722815 7.79605 0.785649C7.95639 0.848482 8.08655 0.942065 8.18655 1.0664C8.28655 1.1909 8.34555 1.3419 8.36355 1.5194C8.38139 1.6969 8.33972 1.87415 8.23855 2.05115C8.03205 2.42682 7.8788 2.81706 7.7788 3.2219C7.6788 3.62673 7.6288 4.05248 7.6288 4.49915C7.6288 6.13798 8.20247 7.53107 9.3498 8.6784C10.497 9.82557 11.89 10.3991 13.5288 10.3991C14.02 10.3991 14.4892 10.337 14.9366 10.2126C15.3841 10.0883 15.7757 9.94407 16.1116 9.7799C16.2757 9.70823 16.436 9.6829 16.5923 9.7039C16.7488 9.72507 16.8823 9.77732 16.9928 9.86065C17.1156 9.94398 17.2068 10.0578 17.2663 10.2021C17.326 10.3463 17.3327 10.5158 17.2866 10.7106C16.9314 12.6773 15.9746 14.3004 14.4163 15.5799C12.858 16.8594 11.0621 17.4991 9.0288 17.4991ZM9.0288 15.9991C10.4955 15.9991 11.8121 15.595 12.9788 14.7866C14.1455 13.9783 14.9955 12.9241 15.5288 11.6241C15.1955 11.7075 14.8621 11.7741 14.5288 11.8241C14.1955 11.8741 13.8621 11.8991 13.5288 11.8991C11.4788 11.8991 9.73297 11.1783 8.2913 9.73665C6.84964 8.29498 6.1288 6.54915 6.1288 4.49915C6.1288 4.16581 6.1538 3.83248 6.2038 3.49915C6.2538 3.16581 6.32047 2.83248 6.4038 2.49915C5.1038 3.03248 4.04964 3.88248 3.2413 5.04915C2.43297 6.21581 2.0288 7.53248 2.0288 8.99915C2.0288 10.9325 2.71214 12.5825 4.0788 13.9491C5.44547 15.3158 7.09547 15.9991 9.0288 15.9991Z" fill="#1C1B1F"/>
</svg>
