<svg width="24" height="24" viewBox="0 0 24 24" fill="none" xmlns="http://www.w3.org/2000/svg">
<mask id="mask0_16_8440" style="mask-type:alpha" maskUnits="userSpaceOnUse" x="0" y="0" width="24" height="24">
<rect width="24" height="24" fill="#D9D9D9"/>
</mask>
<g mask="url(#mask0_16_8440)">
<path d="M13.4424 21.748C13.6 21.7917 13.787 21.8109 14.0031 21.8057C14.2191 21.8006 14.4008 21.7711 14.5481 21.7173L21.5001 19.25C21.5001 18.7347 21.321 18.3078 20.9626 17.9693C20.6043 17.6308 20.1745 17.4615 19.6731 17.4615H13.6694C13.4784 17.4615 13.279 17.4493 13.0714 17.425C12.8635 17.4007 12.6757 17.3577 12.5079 17.2962L10.9846 16.7712C10.8641 16.7276 10.7789 16.6507 10.7289 16.5405C10.6789 16.4302 10.6705 16.3148 10.7039 16.1943C10.7372 16.0904 10.8125 16.01 10.9299 15.953C11.0472 15.8958 11.1661 15.8891 11.2866 15.9327L12.5654 16.3962C12.7347 16.4616 12.9107 16.508 13.0934 16.5355C13.276 16.5632 13.4828 16.577 13.7136 16.577H15.6271C15.8796 16.577 16.0946 16.4959 16.2721 16.3337C16.4498 16.1716 16.5386 15.9539 16.5386 15.6807C16.5386 15.4346 16.4517 15.1872 16.2779 14.9385C16.1042 14.6898 15.8911 14.5206 15.6386 14.4308L9.16538 12.0385C9.06155 12.0052 8.95772 11.9776 8.85388 11.9558C8.75005 11.9341 8.64305 11.9233 8.53288 11.9233H6.69238V19.8038L13.4424 21.748ZM1.69238 19.9615C1.69238 20.3897 1.8418 20.7532 2.14063 21.052C2.4393 21.3507 2.80272 21.5 3.23088 21.5H3.65413C4.0823 21.5 4.44572 21.3507 4.74438 21.052C5.04305 20.7532 5.19238 20.3897 5.19238 19.9615V13.4615C5.19238 13.0333 5.04305 12.6699 4.74438 12.3713C4.44572 12.0726 4.0823 11.9233 3.65413 11.9233H3.23088C2.80272 11.9233 2.4393 12.0726 2.14063 12.3713C1.8418 12.6699 1.69238 13.0333 1.69238 13.4615V19.9615ZM15.8464 11.9788C15.6219 11.9788 15.4016 11.9377 15.1856 11.8558C14.9696 11.7738 14.7713 11.6507 14.5906 11.4865L11.8886 8.8635C11.4105 8.402 11.0082 7.88792 10.6819 7.32125C10.3555 6.75458 10.1924 6.1385 10.1924 5.473C10.1924 4.64617 10.4812 3.944 11.0589 3.3665C11.6364 2.78883 12.3385 2.5 13.1654 2.5C13.7052 2.5 14.2036 2.63017 14.6606 2.8905C15.1178 3.15067 15.513 3.48208 15.8464 3.88475C16.1797 3.48208 16.5749 3.15067 17.0319 2.8905C17.4889 2.63017 17.9873 2.5 18.5271 2.5C19.354 2.5 20.0561 2.78883 20.6336 3.3665C21.2113 3.944 21.5001 4.64617 21.5001 5.473C21.5001 6.1385 21.3396 6.75458 21.0184 7.32125C20.6972 7.88792 20.2976 8.402 19.8194 8.8635L17.1021 11.4865C16.9213 11.6507 16.7229 11.7738 16.5069 11.8558C16.2909 11.9377 16.0707 11.9788 15.8464 11.9788Z" fill="white"/>
</g>
</svg>
