<svg width="18" height="18" viewBox="0 0 18 18" fill="none" xmlns="http://www.w3.org/2000/svg">
<path d="M9 12.9801C8.85942 12.9801 8.72856 12.9576 8.60742 12.9127C8.48628 12.868 8.37107 12.791 8.26179 12.6817L4.63404 9.05396C4.4606 8.88032 4.37494 8.67722 4.37708 8.44467C4.37942 8.21211 4.46507 8.00532 4.63404 7.82429C4.81507 7.64346 5.02293 7.55003 5.25763 7.544C5.49251 7.53797 5.70047 7.62547 5.8815 7.8065L8.125 10.05V1.125C8.125 0.876694 8.20881 0.668833 8.37642 0.501417C8.54383 0.333805 8.75169 0.25 9 0.25C9.24831 0.25 9.45617 0.333805 9.62358 0.501417C9.79119 0.668833 9.875 0.876694 9.875 1.125V10.05L12.1185 7.8065C12.2921 7.63306 12.4982 7.5474 12.7365 7.54954C12.9751 7.55188 13.1849 7.64346 13.366 7.82429C13.5349 8.00532 13.6224 8.21026 13.6285 8.43913C13.6345 8.66799 13.547 8.87293 13.366 9.05396L9.73821 12.6817C9.62893 12.791 9.51372 12.868 9.39258 12.9127C9.27144 12.9576 9.14058 12.9801 9 12.9801ZM2.35904 17.75C1.76968 17.75 1.27083 17.5458 0.8625 17.1375C0.454167 16.7292 0.25 16.2303 0.25 15.641V13.3525C0.25 13.1042 0.333805 12.8964 0.501417 12.729C0.668833 12.5613 0.876694 12.4775 1.125 12.4775C1.37331 12.4775 1.58117 12.5613 1.74858 12.729C1.91619 12.8964 2 13.1042 2 13.3525V15.641C2 15.7308 2.03743 15.813 2.11229 15.8877C2.18696 15.9626 2.26921 16 2.35904 16H15.641C15.7308 16 15.813 15.9626 15.8877 15.8877C15.9626 15.813 16 15.7308 16 15.641V13.3525C16 13.1042 16.0838 12.8964 16.2514 12.729C16.4188 12.5613 16.6267 12.4775 16.875 12.4775C17.1233 12.4775 17.3312 12.5613 17.4986 12.729C17.6662 12.8964 17.75 13.1042 17.75 13.3525V15.641C17.75 16.2303 17.5458 16.7292 17.1375 17.1375C16.7292 17.5458 16.2303 17.75 15.641 17.75H2.35904Z" fill="#03DB80"/>
</svg>
