<svg width="24" height="24" viewBox="0 0 24 24" fill="none" xmlns="http://www.w3.org/2000/svg">
<mask id="mask0_16_6173" style="mask-type:alpha" maskUnits="userSpaceOnUse" x="0" y="0" width="24" height="24">
<rect width="24" height="24" fill="#D9D9D9"/>
</mask>
<g mask="url(#mask0_16_6173)">
<path d="M12 14.6775C11.8795 14.6775 11.7673 14.6583 11.6635 14.6198C11.5597 14.5813 11.4609 14.5153 11.3673 14.4218L6.873 9.9275C6.73467 9.789 6.66384 9.61492 6.6605 9.40525C6.65734 9.19575 6.72817 9.0185 6.873 8.8735C7.018 8.72867 7.19367 8.65625 7.4 8.65625C7.60634 8.65625 7.782 8.72867 7.927 8.8735L12 12.9468L16.073 8.8735C16.2115 8.73517 16.3856 8.66433 16.5953 8.661C16.8048 8.65783 16.982 8.72867 17.127 8.8735C17.2718 9.0185 17.3443 9.19417 17.3443 9.4005C17.3443 9.60683 17.2718 9.7825 17.127 9.9275L12.6328 14.4218C12.5391 14.5153 12.4403 14.5813 12.3365 14.6198C12.2327 14.6583 12.1205 14.6775 12 14.6775Z" fill="white"/>
</g>
</svg>
