<svg width="36" height="36" viewBox="0 0 36 36" fill="none" xmlns="http://www.w3.org/2000/svg">
<mask id="mask0_16_6365" style="mask-type:alpha" maskUnits="userSpaceOnUse" x="0" y="0" width="36" height="36">
<rect width="36" height="36" fill="#D9D9D9"/>
</mask>
<g mask="url(#mask0_16_6365)">
<path d="M10.5 20.25V30C10.5 30.3188 10.3921 30.5859 10.1764 30.8014C9.96062 31.0171 9.69338 31.125 9.37463 31.125C9.05563 31.125 8.7885 31.0171 8.57325 30.8014C8.35775 30.5859 8.25 30.3188 8.25 30V8.106C8.25 7.72175 8.38 7.39975 8.64 7.14C8.89975 6.88 9.22175 6.75 9.606 6.75H19.272C19.5922 6.75 19.8781 6.8505 20.1296 7.0515C20.3809 7.2525 20.5393 7.5135 20.6048 7.8345L20.994 9.75H27.894C28.2783 9.75 28.6003 9.87937 28.86 10.1381C29.12 10.3969 29.25 10.7175 29.25 11.1V21.9004C29.25 22.2829 29.12 22.6034 28.86 22.8619C28.6003 23.1206 28.2783 23.25 27.894 23.25H21.228C20.9078 23.25 20.6219 23.1495 20.3704 22.9485C20.1191 22.7475 19.9607 22.4865 19.8952 22.1655L19.506 20.25H10.5Z" fill="#FF5722"/>
</g>
</svg>
