<svg width="26" height="26" viewBox="0 0 26 26" fill="none" xmlns="http://www.w3.org/2000/svg">
<path d="M2.96163 25.75C2.20388 25.75 1.5625 25.4875 1.0375 24.9625C0.5125 24.4375 0.25 23.7961 0.25 23.0384V2.96163C0.25 2.20388 0.5125 1.5625 1.0375 1.0375C1.5625 0.5125 2.20388 0.25 2.96163 0.25H23.0384C23.7961 0.25 24.4375 0.5125 24.9625 1.0375C25.4875 1.5625 25.75 2.20388 25.75 2.96163V23.0384C25.75 23.7961 25.4875 24.4375 24.9625 24.9625C24.4375 25.4875 23.7961 25.75 23.0384 25.75H2.96163ZM2.5 19.8768V23.0384C2.5 23.1539 2.54813 23.2596 2.64438 23.3556C2.74038 23.4519 2.84613 23.5 2.96163 23.5H23.0384C23.1539 23.5 23.2596 23.4519 23.3556 23.3556C23.4519 23.2596 23.5 23.1539 23.5 23.0384V9.8845L15.6681 18.6798C15.4124 18.976 15.0899 19.1279 14.7006 19.1354C14.3111 19.1431 13.9808 19.0115 13.7095 18.7405L8.67325 13.7039L2.5 19.8768ZM2.5 16.6694L7.72412 11.4452C7.99512 11.174 8.3115 11.0384 8.67325 11.0384C9.03475 11.0384 9.351 11.174 9.622 11.4452L14.6271 16.45L23.5 6.5095V2.96163C23.5 2.84613 23.4519 2.74037 23.3556 2.64437C23.2596 2.54812 23.1539 2.5 23.0384 2.5H2.96163C2.84613 2.5 2.74038 2.54812 2.64438 2.64437C2.54813 2.74037 2.5 2.84613 2.5 2.96163V16.6694ZM2.5 9.8845V6.5095V16.45V10.4961V19.8768V13.7039V19.75V9.8845ZM2.5 16.6694V2.5V16.45V10.4961V16.6694ZM2.5 19.8768V13.7039V19.75V9.8845V23.5V19.8768Z" fill="#5D5D5B"/>
</svg>
