<svg width="36" height="36" viewBox="0 0 36 36" fill="none" xmlns="http://www.w3.org/2000/svg">
<mask id="mask0_16_6511" style="mask-type:alpha" maskUnits="userSpaceOnUse" x="0" y="0" width="36" height="36">
<rect width="36" height="36" fill="#D9D9D9"/>
</mask>
<g mask="url(#mask0_16_6511)">
<path d="M17.9987 28.6681L15.5987 30.494C15.3275 30.6997 15.0587 30.706 14.7925 30.5127C14.5262 30.3195 14.446 30.0622 14.5517 29.741L15.4949 26.7526L13.1324 25.0767C12.8614 24.896 12.7811 24.6475 12.8916 24.3312C13.0021 24.0147 13.218 23.8565 13.5392 23.8565H16.4009L17.4794 20.3487L12.2699 17.2853C11.8006 17.0103 11.4362 16.6407 11.1767 16.1765C10.917 15.712 10.7871 15.197 10.7871 14.6315V6.14522C10.7871 5.39697 11.0521 4.75797 11.5821 4.22822C12.1119 3.69847 12.7507 3.43359 13.4987 3.43359H22.4987C23.2467 3.43359 23.8856 3.69847 24.4154 4.22822C24.9454 4.75797 25.2104 5.39697 25.2104 6.14522V14.6315C25.2104 15.1872 25.0757 15.6926 24.8065 16.1476C24.5372 16.6023 24.168 16.972 23.6987 17.2565L18.5181 20.3487L19.5966 23.8565H22.4582C22.7795 23.8565 22.9954 24.0147 23.1059 24.3312C23.2164 24.6475 23.1361 24.896 22.8651 25.0767L20.5026 26.7526L21.4457 29.741C21.5515 30.0622 21.4712 30.3195 21.205 30.5127C20.9387 30.706 20.67 30.6997 20.3987 30.494L17.9987 28.6681ZM16.8737 5.68359V17.3547L17.9987 18.0241L19.1237 17.3547V5.68359H16.8737Z" fill="#E91E63"/>
</g>
</svg>
