<svg width="30" height="20" viewBox="0 0 30 20" fill="none" xmlns="http://www.w3.org/2000/svg">
<path d="M3.46163 19.75C2.70387 19.75 2.0625 19.4875 1.5375 18.9625C1.0125 18.4375 0.75 17.7961 0.75 17.0384V2.96163C0.75 2.20387 1.0125 1.5625 1.5375 1.0375C2.0625 0.5125 2.70387 0.25 3.46163 0.25H26.5384C27.2961 0.25 27.9375 0.5125 28.4625 1.0375C28.9875 1.5625 29.25 2.20387 29.25 2.96163V17.0384C29.25 17.7961 28.9875 18.4375 28.4625 18.9625C27.9375 19.4875 27.2961 19.75 26.5384 19.75H3.46163ZM23.4806 13.9806H20.625C20.3668 13.9806 20.1531 14.0651 19.9841 14.2341C19.8151 14.4029 19.7306 14.6163 19.7306 14.8743C19.7306 15.1325 19.8151 15.3463 19.9841 15.5155C20.1531 15.6847 20.3668 15.7694 20.625 15.7694H23.9134C24.2976 15.7694 24.6196 15.6394 24.8794 15.3794C25.1394 15.1196 25.2694 14.7976 25.2694 14.4134V11.125C25.2694 10.8667 25.1849 10.6531 25.0159 10.4841C24.8471 10.3151 24.6338 10.2306 24.3758 10.2306C24.1175 10.2306 23.9037 10.3151 23.7345 10.4841C23.5653 10.6531 23.4806 10.8667 23.4806 11.125V13.9806ZM15 14.0384C16.1152 14.0384 17.0671 13.6441 17.8556 12.8556C18.6441 12.0671 19.0384 11.1152 19.0384 10C19.0384 8.88475 18.6441 7.93287 17.8556 7.14437C17.0671 6.35587 16.1152 5.96163 15 5.96163C13.8848 5.96163 12.9329 6.35587 12.1444 7.14437C11.3559 7.93287 10.9616 8.88475 10.9616 10C10.9616 11.1152 11.3559 12.0671 12.1444 12.8556C12.9329 13.6441 13.8848 14.0384 15 14.0384ZM6.51938 6.01937H9.375C9.63325 6.01937 9.84688 5.93488 10.0159 5.76588C10.1849 5.59713 10.2694 5.38375 10.2694 5.12575C10.2694 4.8675 10.1849 4.65375 10.0159 4.4845C9.84688 4.31525 9.63325 4.23063 9.375 4.23063H6.08663C5.70237 4.23063 5.38038 4.36062 5.12063 4.62062C4.86063 4.88037 4.73062 5.20237 4.73062 5.58663V8.875C4.73062 9.13325 4.81512 9.34688 4.98413 9.51587C5.15287 9.68487 5.36625 9.76937 5.62425 9.76937C5.8825 9.76937 6.09625 9.68487 6.2655 9.51587C6.43475 9.34688 6.51938 9.13325 6.51938 8.875V6.01937Z" fill="#005934"/>
</svg>
