<svg width="36" height="36" viewBox="0 0 36 36" fill="none" xmlns="http://www.w3.org/2000/svg">
<mask id="mask0_16_6380" style="mask-type:alpha" maskUnits="userSpaceOnUse" x="0" y="0" width="36" height="36">
<rect width="36" height="36" fill="#D9D9D9"/>
</mask>
<g mask="url(#mask0_16_6380)">
<path d="M13.6155 20.7694H27.6345L22.9789 14.6539L19.4134 19.2116L17.0595 16.2983L13.6155 20.7694ZM12.0866 26.25C11.3289 26.25 10.6875 25.9875 10.1625 25.4625C9.6375 24.9375 9.375 24.2961 9.375 23.5384V6.46163C9.375 5.70387 9.6375 5.0625 10.1625 4.5375C10.6875 4.0125 11.3289 3.75 12.0866 3.75H29.1634C29.9211 3.75 30.5625 4.0125 31.0875 4.5375C31.6125 5.0625 31.875 5.70387 31.875 6.46163V23.5384C31.875 24.2961 31.6125 24.9375 31.0875 25.4625C30.5625 25.9875 29.9211 26.25 29.1634 26.25H12.0866ZM12.0866 24H29.1634C29.2789 24 29.3846 23.9519 29.4806 23.8556C29.5769 23.7596 29.625 23.6539 29.625 23.5384V6.46163C29.625 6.34612 29.5769 6.24037 29.4806 6.14437C29.3846 6.04812 29.2789 6 29.1634 6H12.0866C11.9711 6 11.8654 6.04812 11.7694 6.14437C11.6731 6.24037 11.625 6.34612 11.625 6.46163V23.5384C11.625 23.6539 11.6731 23.7596 11.7694 23.8556C11.8654 23.9519 11.9711 24 12.0866 24ZM6.83663 31.5C6.07887 31.5 5.4375 31.2375 4.9125 30.7125C4.3875 30.1875 4.125 29.5461 4.125 28.7884V9.46163H6.375V28.7884C6.375 28.9039 6.42313 29.0096 6.51938 29.1056C6.61538 29.2019 6.72112 29.25 6.83663 29.25H26.1634V31.5H6.83663ZM12.0866 6H29.1634C29.2789 6 29.3846 6.04812 29.4806 6.14437C29.5769 6.24037 29.625 6.34612 29.625 6.46163V23.5384C29.625 23.6539 29.5769 23.7596 29.4806 23.8556C29.3846 23.9519 29.2789 24 29.1634 24H12.0866C11.9711 24 11.8654 23.9519 11.7694 23.8556C11.6731 23.7596 11.625 23.6539 11.625 23.5384V6.46163C11.625 6.34612 11.6731 6.24037 11.7694 6.14437C11.8654 6.04812 11.9711 6 12.0866 6Z" fill="#002D80"/>
</g>
</svg>
