<svg width="16" height="20" viewBox="0 0 16 20" fill="none" xmlns="http://www.w3.org/2000/svg">
<path d="M0.8 17.0741C0.573333 17.0741 0.383378 16.9992 0.230133 16.8495C0.0767112 16.6996 0 16.5139 0 16.2923C0 16.0708 0.0767112 15.8852 0.230133 15.7355C0.383378 15.586 0.573333 15.5112 0.8 15.5112H1.92827V7.73541C1.92827 6.33398 2.37102 5.09485 3.25653 4.01803C4.14187 2.9412 5.27858 2.25247 6.66667 1.95183V1.30261C6.66667 0.940831 6.79618 0.633242 7.0552 0.379841C7.31422 0.126614 7.62871 0 7.99867 0C8.3688 0 8.68373 0.126614 8.94347 0.379841C9.20338 0.633242 9.33333 0.940831 9.33333 1.30261V1.95183C10.7214 2.25247 11.8581 2.9412 12.7435 4.01803C13.629 5.09485 14.0717 6.33398 14.0717 7.73541V15.5112H15.2C15.4267 15.5112 15.6166 15.5861 15.7699 15.7358C15.9233 15.8857 16 16.0714 16 16.293C16 16.5145 15.9233 16.7001 15.7699 16.8498C15.6166 16.9993 15.4267 17.0741 15.2 17.0741H0.8ZM7.99813 20C7.46747 20 7.01378 19.8156 6.63707 19.4467C6.26018 19.0778 6.07173 18.6343 6.07173 18.1162H9.92827C9.92827 18.636 9.73929 19.0799 9.36133 19.448C8.98338 19.816 8.52898 20 7.99813 20ZM3.52827 15.5112H12.4717V7.73541C12.4717 6.52902 12.0352 5.49935 11.1621 4.64641C10.2889 3.79328 9.23485 3.36672 8 3.36672C6.76516 3.36672 5.71111 3.79328 4.83787 4.64641C3.9648 5.49935 3.52827 6.52902 3.52827 7.73541V15.5112Z" fill="black"/>
</svg>
