<svg width="36" height="36" viewBox="0 0 36 36" fill="none" xmlns="http://www.w3.org/2000/svg">
<mask id="mask0_16_6467" style="mask-type:alpha" maskUnits="userSpaceOnUse" x="0" y="0" width="36" height="37">
<rect y="0.00195312" width="36" height="36" fill="#D9D9D9"/>
</mask>
<g mask="url(#mask0_16_6467)">
<path d="M19.4515 5.45476C19.4515 4.99826 19.6222 4.63313 19.9637 4.35938C20.305 4.08563 20.6891 3.99401 21.1161 4.08451C23.8756 4.67676 26.2356 5.96326 28.1961 7.94401C30.1568 9.92476 31.418 12.295 31.9795 15.0548C32.0697 15.4508 31.984 15.8006 31.7222 16.1044C31.4605 16.4084 31.102 16.5604 30.6467 16.5604H22.3303C22.2401 16.5604 22.161 16.5378 22.093 16.4925C22.0252 16.4473 21.9687 16.3795 21.9235 16.2893C21.6985 15.793 21.395 15.35 21.013 14.9603C20.6307 14.5705 20.2006 14.2693 19.7226 14.0565C19.6323 14.0118 19.5646 13.9614 19.5193 13.9054C19.4741 13.8494 19.4515 13.7766 19.4515 13.6871V5.45476ZM14.8622 31.8833C11.6565 31.1565 9.00934 29.5069 6.92084 26.9344C4.83234 24.3621 3.78809 21.3849 3.78809 18.0026C3.78809 14.6134 4.83234 11.6358 6.92084 9.06976C9.00934 6.50401 11.6565 4.85476 14.8622 4.12201C15.3142 4.01626 15.721 4.11589 16.0825 4.42089C16.444 4.72589 16.6247 5.11563 16.6247 5.59013V13.7449C16.6247 13.7689 16.5545 13.865 16.414 14.0333C15.6122 14.3643 14.971 14.8903 14.4902 15.6113C14.0092 16.3325 13.7687 17.1306 13.7687 18.0056C13.7687 18.8806 14.0092 19.6676 14.4902 20.3666C14.971 21.0656 15.6122 21.5758 16.414 21.897C16.4545 21.9123 16.5247 22.0074 16.6247 22.1824V30.4151C16.6247 30.8896 16.444 31.2794 16.0825 31.5844C15.721 31.8894 15.3142 31.989 14.8622 31.8833ZM20.9575 31.944C20.5612 32.0248 20.2112 31.9349 19.9075 31.6744C19.6035 31.4139 19.4515 31.0796 19.4515 30.6716V22.2806C19.4515 22.1901 19.4741 22.111 19.5193 22.0433C19.5646 21.9755 19.6323 21.919 19.7226 21.8738C20.2131 21.6583 20.649 21.3595 21.0302 20.9775C21.4115 20.5953 21.7092 20.1651 21.9235 19.6871C21.939 19.6564 22.0666 19.566 22.3063 19.416H30.6467C31.0555 19.416 31.3961 19.5868 31.6686 19.9283C31.9411 20.2695 32.0322 20.6536 31.942 21.0806C31.3555 23.8401 30.068 26.2001 28.0795 28.1606C26.091 30.1214 23.717 31.3825 20.9575 31.944Z" fill="#2196F3"/>
</g>
</svg>
