<svg width="46" height="46" viewBox="0 0 46 46" fill="none" xmlns="http://www.w3.org/2000/svg">
<circle cx="23" cy="23" r="23" fill="#EBF0F0" fill-opacity="0.1"/>
<mask id="mask0_16_6069" style="mask-type:alpha" maskUnits="userSpaceOnUse" x="11" y="11" width="24" height="24">
<rect x="11" y="11" width="24" height="24" fill="#D9D9D9"/>
</mask>
<g mask="url(#mask0_16_6069)">
<path d="M17.0385 28.5L15.0365 30.5018C14.752 30.7864 14.4248 30.8509 14.0548 30.6952C13.6849 30.5394 13.5 30.2589 13.5 29.8538V15.3077C13.5 14.8026 13.675 14.375 14.025 14.025C14.375 13.675 14.8026 13.5 15.3077 13.5H30.6923C31.1974 13.5 31.625 13.675 31.975 14.025C32.325 14.375 32.5 14.8026 32.5 15.3077V26.6923C32.5 27.1974 32.325 27.625 31.975 27.975C31.625 28.325 31.1974 28.5 30.6923 28.5H17.0385ZM16.4 27H30.6923C30.7693 27 30.8398 26.9679 30.9038 26.9038C30.9679 26.8398 31 26.7692 31 26.6923V15.3077C31 15.2307 30.9679 15.1602 30.9038 15.0962C30.8398 15.0321 30.7693 15 30.6923 15H15.3077C15.2307 15 15.1603 15.0321 15.0963 15.0962C15.0321 15.1602 15 15.2307 15 15.3077V28.3848L16.4 27ZM18 24.75H24C24.2128 24.75 24.391 24.6782 24.5345 24.5345C24.6782 24.391 24.75 24.2128 24.75 24C24.75 23.7872 24.6782 23.609 24.5345 23.4655C24.391 23.3218 24.2128 23.25 24 23.25H18C17.7872 23.25 17.609 23.3218 17.4655 23.4655C17.3218 23.609 17.25 23.7872 17.25 24C17.25 24.2128 17.3218 24.391 17.4655 24.5345C17.609 24.6782 17.7872 24.75 18 24.75ZM18 21.75H28C28.2128 21.75 28.391 21.6782 28.5345 21.5345C28.6782 21.391 28.75 21.2128 28.75 21C28.75 20.7872 28.6782 20.609 28.5345 20.4655C28.391 20.3218 28.2128 20.25 28 20.25H18C17.7872 20.25 17.609 20.3218 17.4655 20.4655C17.3218 20.609 17.25 20.7872 17.25 21C17.25 21.2128 17.3218 21.391 17.4655 21.5345C17.609 21.6782 17.7872 21.75 18 21.75ZM18 18.75H28C28.2128 18.75 28.391 18.6782 28.5345 18.5345C28.6782 18.391 28.75 18.2128 28.75 18C28.75 17.7872 28.6782 17.609 28.5345 17.4655C28.391 17.3218 28.2128 17.25 28 17.25H18C17.7872 17.25 17.609 17.3218 17.4655 17.4655C17.3218 17.609 17.25 17.7872 17.25 18C17.25 18.2128 17.3218 18.391 17.4655 18.5345C17.609 18.6782 17.7872 18.75 18 18.75Z" fill="#5D5D5B"/>
</g>
</svg>
