<svg width="20" height="20" viewBox="0 0 20 20" fill="none" xmlns="http://www.w3.org/2000/svg">
<path d="M2.19242 19.9173C1.60305 19.9173 1.10421 19.7132 0.695874 19.3048C0.287541 18.8965 0.083374 18.3976 0.083374 17.8083V2.19303C0.083374 1.60366 0.287541 1.10482 0.695874 0.696484C1.10421 0.288151 1.60305 0.0839844 2.19242 0.0839844H8.67617C8.92447 0.0839844 9.13243 0.16779 9.30004 0.335401C9.46746 0.502818 9.55117 0.710679 9.55117 0.958984C9.55117 1.20729 9.46746 1.41515 9.30004 1.58257C9.13243 1.75018 8.92447 1.83398 8.67617 1.83398H2.19242C2.10258 1.83398 2.02033 1.87141 1.94567 1.94628C1.8708 2.02094 1.83337 2.10319 1.83337 2.19303V17.8083C1.83337 17.8981 1.8708 17.9804 1.94567 18.055C2.02033 18.1299 2.10258 18.1673 2.19242 18.1673H17.8077C17.8975 18.1673 17.9798 18.1299 18.0544 18.055C18.1293 17.9804 18.1667 17.8981 18.1667 17.8083V11.3245C18.1667 11.0762 18.2505 10.8683 18.4181 10.7007C18.5855 10.5332 18.7934 10.4495 19.0417 10.4495C19.29 10.4495 19.4979 10.5332 19.6653 10.7007C19.8329 10.8683 19.9167 11.0762 19.9167 11.3245V17.8083C19.9167 18.3976 19.7125 18.8965 19.3042 19.3048C18.8959 19.7132 18.397 19.9173 17.8077 19.9173H2.19242ZM18.1667 3.06336L7.954 13.2764C7.79242 13.4377 7.58932 13.5204 7.34471 13.5243C7.10029 13.528 6.8935 13.4453 6.72433 13.2764C6.55536 13.1072 6.47087 12.9022 6.47087 12.6615C6.47087 12.4208 6.55536 12.2159 6.72433 12.0467L16.9373 1.83398H13.2084C12.9601 1.83398 12.7522 1.75018 12.5848 1.58257C12.4172 1.41515 12.3334 1.20729 12.3334 0.958984C12.3334 0.710679 12.4172 0.502818 12.5848 0.335401C12.7522 0.16779 12.9601 0.0839844 13.2084 0.0839844H18.862C19.1628 0.0839844 19.4138 0.184609 19.6148 0.385859C19.8161 0.586914 19.9167 0.837845 19.9167 1.13865V6.79232C19.9167 7.04062 19.8329 7.24849 19.6653 7.4159C19.4979 7.58351 19.29 7.66732 19.0417 7.66732C18.7934 7.66732 18.5855 7.58351 18.4181 7.4159C18.2505 7.24849 18.1667 7.04062 18.1667 6.79232V3.06336Z" fill="#7A52F4"/>
</svg>
