<svg width="22" height="22" viewBox="0 0 22 22" fill="none" xmlns="http://www.w3.org/2000/svg">
<path d="M10.9957 0C17.0736 0 22 4.92544 22 11.0022C22 17.0789 17.0736 22 11 22C4.92208 22 2.85085e-06 17.0746 2.85085e-06 11.0022C-0.00432615 4.92544 4.92208 0 10.9957 0Z" fill="#8247E5"/>
<path d="M14.6017 8.60456C14.3376 8.45307 13.9999 8.45307 13.7012 8.60456L11.5973 9.85107L10.1688 10.6431L8.10384 11.8853C7.83977 12.0368 7.50211 12.0368 7.20341 11.8853L5.58869 10.9028C5.32462 10.7513 5.13848 10.4484 5.13848 10.1108V8.22368C5.13848 7.92071 5.28999 7.62207 5.58869 7.43163L7.20341 6.48809C7.46748 6.33661 7.80514 6.33661 8.10384 6.48809L9.71856 7.47058C9.98263 7.62207 10.1688 7.92504 10.1688 8.26264V9.50914L11.5973 8.67814V7.39701C11.5973 7.09403 11.4458 6.79539 11.1471 6.60495L8.1428 4.83041C7.87873 4.67893 7.54107 4.67893 7.24237 4.83041L4.16445 6.64391C3.86575 6.79539 3.71423 7.09836 3.71423 7.39701V10.9418C3.71423 11.2447 3.86575 11.5434 4.16445 11.7338L7.20774 13.5084C7.47181 13.6598 7.80947 13.6598 8.10817 13.5084L10.1731 12.3008L11.6017 11.4698L13.6666 10.2622C13.9307 10.1108 14.2683 10.1108 14.567 10.2622L16.1818 11.2058C16.4458 11.3573 16.632 11.6602 16.632 11.9978V13.8849C16.632 14.1879 16.4805 14.4865 16.1818 14.677L14.606 15.6205C14.3419 15.772 14.0043 15.772 13.7056 15.6205L12.0865 14.677C11.8225 14.5255 11.6363 14.2225 11.6363 13.8849V12.6774L10.2077 13.5084V14.7549C10.2077 15.0578 10.3593 15.3565 10.658 15.5469L13.7012 17.3215C13.9653 17.4729 14.303 17.4729 14.6017 17.3215L17.645 15.5469C17.909 15.3954 18.0952 15.0925 18.0952 14.7549V11.1712C18.0952 10.8682 17.9437 10.5695 17.645 10.3791L14.6017 8.60456Z" fill="white"/>
</svg>
