<svg width="36" height="36" viewBox="0 0 36 36" fill="none" xmlns="http://www.w3.org/2000/svg">
<mask id="mask0_16_8585" style="mask-type:alpha" maskUnits="userSpaceOnUse" x="0" y="0" width="36" height="36">
<rect width="36" height="36" fill="#D9D9D9"/>
</mask>
<g mask="url(#mask0_16_8585)">
<path d="M31.2417 19.1253H28.0685C27.7497 19.1253 27.4826 19.0174 27.2671 18.8017C27.0514 18.5859 26.9435 18.3187 26.9435 17.9999C26.9435 17.6809 27.0514 17.4138 27.2671 17.1985C27.4826 16.983 27.7497 16.8753 28.0685 16.8753H31.2417C31.5605 16.8753 31.8276 16.9832 32.0431 17.1989C32.2589 17.4147 32.3667 17.6819 32.3667 18.0007C32.3667 18.3197 32.2589 18.5868 32.0431 18.802C31.8276 19.0175 31.5605 19.1253 31.2417 19.1253ZM25.0021 25.0705C25.1944 24.807 25.4401 24.655 25.7394 24.6145C26.0384 24.5743 26.3196 24.6503 26.5831 24.8425L29.1129 26.7434C29.3764 26.9359 29.5282 27.1817 29.5685 27.4807C29.609 27.7797 29.533 28.0609 29.3405 28.3244C29.1482 28.5877 28.9026 28.7395 28.6036 28.78C28.3046 28.8205 28.0234 28.7445 27.7599 28.552L25.2301 26.6512C24.9666 26.4589 24.8147 26.2133 24.7745 25.9143C24.734 25.6153 24.8099 25.334 25.0021 25.0705ZM29.0551 9.19942L26.5254 11.1003C26.2619 11.2925 25.9806 11.3685 25.6816 11.3283C25.3826 11.2878 25.1369 11.1358 24.9444 10.8723C24.7521 10.609 24.6762 10.3278 24.7167 10.0285C24.757 9.72954 24.9089 9.48392 25.1724 9.29167L27.7021 7.3908C27.9656 7.19855 28.2469 7.12255 28.5459 7.1628C28.8449 7.2033 29.0906 7.35517 29.2831 7.61842C29.4754 7.88192 29.5512 8.16317 29.5107 8.46217C29.4705 8.76142 29.3186 9.00717 29.0551 9.19942ZM7.87624 21.8658H6.34737C5.60162 21.8658 4.96324 21.6003 4.43224 21.0693C3.90124 20.5383 3.63574 19.8999 3.63574 19.1542V16.8464C3.63574 16.1007 3.90124 15.4623 4.43224 14.9313C4.96324 14.4003 5.60162 14.1348 6.34737 14.1348H12.1456L16.8099 11.3455C17.2619 11.0743 17.7176 11.0728 18.1771 11.341C18.6369 11.609 18.8667 11.9999 18.8667 12.5137V23.4869C18.8667 24.0007 18.6369 24.3915 18.1771 24.6595C17.7176 24.9278 17.2619 24.9263 16.8099 24.655L12.1456 21.8658H10.1262V26.5964C10.1262 26.9152 10.0184 27.1823 9.80262 27.3978C9.58687 27.6135 9.31962 27.7214 9.00087 27.7214C8.68187 27.7214 8.41474 27.6135 8.19949 27.3978C7.98399 27.1823 7.87624 26.9152 7.87624 26.5964V21.8658ZM20.9435 22.6792V13.3214C21.532 13.8542 22.006 14.5265 22.3655 15.3385C22.7252 16.1505 22.9051 17.0389 22.9051 18.0037C22.9051 18.9687 22.7252 19.856 22.3655 20.6658C22.006 21.4753 21.532 22.1464 20.9435 22.6792Z" fill="#1C1B1F"/>
</g>
</svg>
