<svg width="6" height="10" viewBox="0 0 6 10" fill="none" xmlns="http://www.w3.org/2000/svg">
<path d="M3.78904 5.00042L0.394665 1.60625C0.279387 1.49083 0.220359 1.34576 0.217581 1.17104C0.214943 0.996459 0.27397 0.84875 0.394665 0.727917C0.515498 0.607222 0.661887 0.546875 0.833831 0.546875C1.00578 0.546875 1.15216 0.607222 1.273 0.727917L5.01821 4.47313C5.09612 4.55118 5.15112 4.63347 5.18321 4.72C5.21529 4.80653 5.23133 4.9 5.23133 5.00042C5.23133 5.10083 5.21529 5.19431 5.18321 5.28083C5.15112 5.36736 5.09612 5.44965 5.01821 5.52771L1.273 9.27292C1.15758 9.3882 1.01251 9.44722 0.83779 9.45C0.663206 9.45264 0.515498 9.39361 0.394665 9.27292C0.27397 9.15208 0.213623 9.0057 0.213623 8.83375C0.213623 8.66181 0.27397 8.51542 0.394665 8.39458L3.78904 5.00042Z" fill="#7A52F4"/>
</svg>
