<svg width="22" height="22" viewBox="0 0 22 22" fill="none" xmlns="http://www.w3.org/2000/svg">
<g clip-path="url(#clip0_16_6324)">
<path d="M21.8818 17.307L18.2509 21.6522C18.1719 21.7467 18.0764 21.8219 17.9703 21.8733C17.8642 21.9248 17.7497 21.9513 17.634 21.9512H0.421528C0.339397 21.9512 0.259057 21.9244 0.190377 21.8742C0.121698 21.8239 0.0676708 21.7524 0.0349343 21.6684C0.00219784 21.5843 -0.00782201 21.4914 0.00610597 21.4011C0.0200339 21.3107 0.057303 21.2269 0.113334 21.1599L3.74702 16.8147C3.82574 16.7205 3.92094 16.6454 4.02672 16.594C4.13251 16.5425 4.24662 16.5159 4.36201 16.5157H21.5736C21.6557 16.5157 21.736 16.5424 21.8047 16.5927C21.8734 16.643 21.9274 16.7145 21.9601 16.7986C21.9929 16.8826 22.0029 16.9755 21.989 17.0658C21.975 17.1562 21.9378 17.2399 21.8818 17.307ZM18.2509 8.55683C18.1719 8.46241 18.0764 8.38717 17.9703 8.33573C17.8642 8.28429 17.7497 8.25775 17.634 8.25783H0.421528C0.339397 8.25783 0.259057 8.28461 0.190377 8.33487C0.121698 8.38513 0.0676708 8.45669 0.0349343 8.5407C0.00219784 8.62478 -0.00782201 8.71764 0.00610597 8.80799C0.0200339 8.89833 0.057303 8.98211 0.113334 9.04912L3.74702 13.3944C3.82574 13.4886 3.92094 13.5637 4.02672 13.6151C4.13251 13.6665 4.24662 13.6932 4.36201 13.6934H21.5736C21.6557 13.6934 21.736 13.6666 21.8047 13.6164C21.8734 13.5661 21.9274 13.4945 21.9601 13.4104C21.9929 13.3264 22.0029 13.2335 21.989 13.1432C21.975 13.0529 21.9378 12.9691 21.8818 12.9021L18.2509 8.55683ZM0.421528 5.43554H17.634C17.7497 5.43561 17.8642 5.4091 17.9703 5.35767C18.0764 5.30624 18.1719 5.23098 18.2509 5.13659L21.8818 0.791288C21.9378 0.724283 21.975 0.640471 21.989 0.550153C22.0029 0.459834 21.9929 0.366943 21.9601 0.282892C21.9274 0.198841 21.8734 0.127292 21.8047 0.0770345C21.736 0.0267778 21.6557 3.09499e-06 21.5736 0H4.36201C4.24662 0.000219112 4.13251 0.0268651 4.02672 0.0782881C3.92094 0.129712 3.82574 0.204817 3.74702 0.298955L0.114271 4.64425C0.0582938 4.71119 0.0210412 4.7949 0.00708162 4.88513C-0.0068779 4.97535 0.00306242 5.06816 0.0356835 5.15217C0.0683047 5.23618 0.122189 5.30774 0.190727 5.35807C0.259265 5.40841 0.339478 5.43533 0.421528 5.43554Z" fill="url(#paint0_linear_16_6324)"/>
</g>
<defs>
<linearGradient id="paint0_linear_16_6324" x1="1.85665" y1="22.4744" x2="22.1421" y2="1.98143" gradientUnits="userSpaceOnUse">
<stop offset="0.08" stop-color="#9945FF"/>
<stop offset="0.3" stop-color="#8752F3"/>
<stop offset="0.5" stop-color="#5497D5"/>
<stop offset="0.6" stop-color="#43B4CA"/>
<stop offset="0.72" stop-color="#28E0B9"/>
<stop offset="0.97" stop-color="#19FB9B"/>
</linearGradient>
<clipPath id="clip0_16_6324">
<rect width="22" height="22" fill="white"/>
</clipPath>
</defs>
</svg>
