<svg width="24" height="24" viewBox="0 0 24 24" fill="none" xmlns="http://www.w3.org/2000/svg">
<mask id="mask0_16_8869" style="mask-type:alpha" maskUnits="userSpaceOnUse" x="0" y="0" width="24" height="24">
<rect width="24" height="24" fill="#D9D9D9"/>
</mask>
<g mask="url(#mask0_16_8869)">
<path d="M7 13.7497H13C13.2125 13.7497 13.3906 13.6778 13.5343 13.534C13.6781 13.3901 13.75 13.212 13.75 12.9995C13.75 12.7868 13.6781 12.6087 13.5343 12.4652C13.3906 12.3216 13.2125 12.2497 13 12.2497H7C6.7875 12.2497 6.60942 12.3216 6.46575 12.4655C6.32192 12.6093 6.25 12.7875 6.25 13C6.25 13.2126 6.32192 13.3907 6.46575 13.5342C6.60942 13.6779 6.7875 13.7497 7 13.7497ZM7 10.7497H17C17.2125 10.7497 17.3906 10.6778 17.5343 10.534C17.6781 10.3901 17.75 10.212 17.75 9.99947C17.75 9.7868 17.6781 9.60872 17.5343 9.46522C17.3906 9.32155 17.2125 9.24972 17 9.24972H7C6.7875 9.24972 6.60942 9.32164 6.46575 9.46547C6.32192 9.6093 6.25 9.78747 6.25 9.99997C6.25 10.2126 6.32192 10.3907 6.46575 10.5342C6.60942 10.6779 6.7875 10.7497 7 10.7497ZM7 7.74972H15.5C15.7125 7.74972 15.8907 7.6778 16.0345 7.53397C16.1782 7.39014 16.25 7.21197 16.25 6.99947C16.25 6.7868 16.1782 6.60872 16.0345 6.46522C15.8907 6.32155 15.7125 6.24972 15.5 6.24972H7C6.7875 6.24972 6.60942 6.32164 6.46575 6.46547C6.32192 6.6093 6.25 6.78747 6.25 6.99997C6.25 7.21264 6.32192 7.39072 6.46575 7.53422C6.60942 7.67789 6.7875 7.74972 7 7.74972ZM6.0385 17.4997L4.0365 19.5015C3.752 19.7861 3.42475 19.8501 3.05475 19.6935C2.68492 19.5366 2.5 19.2566 2.5 18.8535V4.30747C2.5 3.8023 2.675 3.37472 3.025 3.02472C3.375 2.67472 3.80258 2.49972 4.30775 2.49972H13.4808C13.6961 2.49972 13.8765 2.57472 14.022 2.72472C14.1677 2.87472 14.2373 3.05614 14.2308 3.26897C14.2244 3.4753 14.1494 3.64872 14.0057 3.78922C13.8622 3.92955 13.6873 3.99972 13.4808 3.99972H4.30775C4.23075 3.99972 4.16025 4.0318 4.09625 4.09597C4.03208 4.15997 4 4.23047 4 4.30747V17.3845L5.4 15.9997H19.6923C19.7693 15.9997 19.8398 15.9676 19.9038 15.9035C19.9679 15.8395 20 15.769 20 15.692V8.97097C20 8.75847 20.0719 8.5803 20.2157 8.43647C20.3596 8.2928 20.5378 8.22097 20.7502 8.22097C20.9629 8.22097 21.141 8.2928 21.2845 8.43647C21.4282 8.5803 21.5 8.75847 21.5 8.97097V15.692C21.5 16.1971 21.325 16.6247 20.975 16.9747C20.625 17.3247 20.1974 17.4997 19.6923 17.4997H6.0385ZM19.0012 6.23047C18.2376 6.23047 17.5882 5.96322 17.053 5.42872C16.5177 4.89422 16.25 4.24522 16.25 3.48172C16.25 2.71805 16.5173 2.06864 17.0518 1.53347C17.5863 0.998135 18.2353 0.730469 18.9988 0.730469C19.7624 0.730469 20.4118 0.997719 20.947 1.53222C21.4823 2.06672 21.75 2.7158 21.75 3.47947C21.75 4.24297 21.4827 4.89239 20.9482 5.42772C20.4137 5.96289 19.7647 6.23047 19.0012 6.23047ZM4 4.30747V16.692V3.99972V4.30747Z" fill="#7A52F4"/>
</g>
</svg>
