<svg width="36" height="36" viewBox="0 0 36 36" fill="none" xmlns="http://www.w3.org/2000/svg">
<mask id="mask0_16_6395" style="mask-type:alpha" maskUnits="userSpaceOnUse" x="0" y="0" width="36" height="36">
<rect width="36" height="36" fill="#D9D9D9"/>
</mask>
<g mask="url(#mask0_16_6395)">
<path d="M15 9.75H21V7.21163C21 7.07713 20.9567 6.9665 20.8703 6.87975C20.7838 6.79325 20.6731 6.75 20.5384 6.75H15.4616C15.3269 6.75 15.2162 6.79325 15.1297 6.87975C15.0432 6.9665 15 7.07713 15 7.21163V9.75ZM27 33.75C25.127 33.75 23.5337 33.0933 22.2202 31.7798C20.9067 30.4663 20.25 28.873 20.25 27C20.25 25.127 20.9067 23.5338 22.2202 22.2203C23.5337 20.9067 25.127 20.25 27 20.25C28.873 20.25 30.4663 20.9067 31.7798 22.2203C33.0933 23.5338 33.75 25.127 33.75 27C33.75 28.873 33.0933 30.4663 31.7798 31.7798C30.4663 33.0933 28.873 33.75 27 33.75ZM6.46163 30.75C5.70387 30.75 5.0625 30.4875 4.5375 29.9625C4.0125 29.4375 3.75 28.7961 3.75 28.0384V12.4616C3.75 11.7039 4.0125 11.0625 4.5375 10.5375C5.0625 10.0125 5.70387 9.75 6.46163 9.75H12.75V7.21163C12.75 6.45387 13.0125 5.8125 13.5375 5.2875C14.0625 4.7625 14.7039 4.5 15.4616 4.5H20.5384C21.2961 4.5 21.9375 4.7625 22.4625 5.2875C22.9875 5.8125 23.25 6.45387 23.25 7.21163V9.75H29.5384C30.2961 9.75 30.9375 10.0125 31.4625 10.5375C31.9875 11.0625 32.25 11.7039 32.25 12.4616V16.9991C32.25 17.4106 32.0779 17.7192 31.7336 17.925C31.3894 18.1307 31.024 18.1481 30.6375 17.9771C30.074 17.7346 29.4816 17.5529 28.8604 17.4319C28.2394 17.3106 27.6192 17.25 27 17.25C24.302 17.25 22.0025 18.2005 20.1015 20.1015C18.2005 22.0025 17.25 24.302 17.25 27C17.25 27.3538 17.2693 27.7163 17.3078 28.0875C17.3463 28.4587 17.4135 28.8213 17.5095 29.175C17.6058 29.571 17.5346 29.9325 17.2961 30.2595C17.0576 30.5865 16.7451 30.75 16.3586 30.75H6.46163ZM26.3366 28.6643L24.2482 26.5759C24.1175 26.4451 23.9641 26.3774 23.7881 26.3726C23.6121 26.3679 23.4539 26.4356 23.3134 26.5759C23.1731 26.7164 23.103 26.8721 23.103 27.0431C23.103 27.2144 23.1731 27.3703 23.3134 27.5107L26.0509 30.2479C26.3221 30.5191 26.6385 30.6548 27 30.6548C27.3615 30.6548 27.6779 30.5191 27.9491 30.2479L30.6866 27.5107C30.8174 27.3797 30.8851 27.2264 30.8899 27.0506C30.8946 26.8746 30.8269 26.7164 30.6866 26.5759C30.5461 26.4356 30.3904 26.3655 30.2194 26.3655C30.0481 26.3655 29.8923 26.4356 29.7518 26.5759L27.6634 28.6643V23.4664C27.6634 23.2856 27.598 23.1299 27.4673 22.9991C27.3365 22.8684 27.1807 22.803 27 22.803C26.8193 22.803 26.6635 22.8684 26.5327 22.9991C26.402 23.1299 26.3366 23.2856 26.3366 23.4664V28.6643Z" fill="#002D80"/>
</g>
</svg>
